# File created by Blade
# Date/Time:  Thu Sep 25 15:31:15 2014
# Frame Rate: 120.000 fps
#------------------------------------------------------
:FULLY-SPECIFIED
:DEGREES
885
root 11.162312 29.771489 -3.189616 189.276764 -69.568045 -117.245126
Spine 24.394682 15.189742 -12.533840
Head -57.891361 9.811390 8.528740
LeftShoulder 13.825351 -16.311581 42.325059
LeftArm 42.694422 -30.102863 -23.268643
LeftForeArm 3.981260 -0.000000 19.134173
LeftHand -24.924337 -0.000000 -1.964892
LeftHandThumb1 -26.253704 0.000000 33.147579
RightShoulder 11.767259 40.284238 -36.058670
RightArm 47.267502 15.978062 46.352388
RightForeArm -15.670839 -0.000000 25.698796
RightHand -8.879394 -0.000000 -2.386422
RightHandThumb1 -24.326973 -0.000000 -32.862282
LeftUpLeg -96.753177 5.402233 2.653606
LeftLeg 63.260710 -0.000000 -0.000000
LeftFoot -40.322665 19.109776 -28.001546
LeftToeBase -5.675396 -0.000000 0.000000
RightUpLeg -33.584096 -6.355627 17.022072
RightLeg 7.672467 -0.000000 -0.000000
RightFoot -0.740145 -0.786843 1.060078
RightToeBase -4.680110 -0.000000 0.000000
886
root 10.796205 29.746687 -3.140781 189.971453 -69.111767 -116.090437
Spine 24.212606 14.961350 -13.155689
Head -59.362802 10.740785 8.287535
LeftShoulder 13.766377 -15.009074 43.197871
LeftArm 41.240603 -32.247502 -21.869860
LeftForeArm 3.691464 -0.000000 18.918688
LeftHand -24.848283 -0.000000 -1.665474
LeftHandThumb1 -26.253704 0.000000 33.147579
RightShoulder 11.336338 41.464492 -36.940375
RightArm 46.502841 16.657773 46.156058
RightForeArm -15.464162 -0.000000 26.076104
RightHand -8.946323 -0.000000 -2.658660
RightHandThumb1 -24.326973 -0.000000 -32.862282
LeftUpLeg -97.587416 5.624797 3.163157
LeftLeg 63.084326 -0.000000 -0.000000
LeftFoot -41.535872 18.995201 -28.336930
LeftToeBase -5.403651 -0.000000 0.000000
RightUpLeg -33.428357 -6.811318 16.985320
RightLeg 7.271545 -0.000000 -0.000000
RightFoot 1.673293 1.159034 2.804313
RightToeBase -1.601020 -0.000000 0.000000
887
root 10.424978 29.733649 -3.088300 190.839166 -68.699579 -114.995929
Spine 23.805927 14.758918 -13.936975
Head -60.576070 11.658746 8.505837
LeftShoulder 13.833414 -13.461616 44.317354
LeftArm 39.840694 -34.677708 -20.689622
LeftForeArm 3.429191 -0.000000 18.632397
LeftHand -24.879703 -0.000000 -1.208461
LeftHandThumb1 -26.253704 0.000000 33.147579
RightShoulder 11.101047 42.536349 -37.515233
RightArm 45.549319 17.473424 45.814048
RightForeArm -15.434490 -0.000000 26.486617
RightHand -9.010859 0.000000 -3.002574
RightHandThumb1 -24.326973 -0.000000 -32.862282
LeftUpLeg -98.467430 5.821333 3.665786
LeftLeg 62.769860 -0.000000 -0.000000
LeftFoot -42.645955 18.956323 -28.658482
LeftToeBase -5.170866 -0.000000 0.000000
RightUpLeg -33.254478 -7.106025 16.746899
RightLeg 6.948179 -0.000000 -0.000000
RightFoot 3.613623 2.346050 3.981637
RightToeBase -0.787853 -0.000000 0.000000
888
root 10.041825 29.729606 -3.029240 191.901052 -68.320553 -114.035630
Spine 23.375336 14.503793 -14.720595
Head -61.839102 12.309031 8.647466
LeftShoulder 13.910166 -12.199439 45.240040
LeftArm 38.231156 -36.829441 -19.365173
LeftForeArm 3.070738 -0.000000 18.360184
LeftHand -24.961400 -0.000000 -0.596901
LeftHandThumb1 -26.253704 0.000000 33.147579
RightShoulder 10.774742 43.545996 -38.122676
RightArm 44.708735 18.313911 45.515624
RightForeArm -15.565148 0.000000 26.911947
RightHand -9.187175 -0.000000 -3.497139
RightHandThumb1 -24.326973 -0.000000 -32.862282
LeftUpLeg -99.305033 5.973279 4.188074
LeftLeg 62.293048 -0.000000 -0.000000
LeftFoot -43.734761 18.952041 -28.979573
LeftToeBase -5.042852 -0.000000 0.000000
RightUpLeg -33.040821 -7.430621 16.348542
RightLeg 6.708920 -0.000000 -0.000000
RightFoot 5.310375 3.208718 5.142124
RightToeBase 0.266897 -0.000000 -0.000000
889
root 9.644357 29.727804 -2.969138 192.982062 -67.959183 -113.076642
Spine 22.916532 14.116924 -15.500174
Head -63.100159 12.810309 8.730339
LeftShoulder 13.883017 -10.627493 46.030753
LeftArm 36.854920 -39.309450 -18.185942
LeftForeArm 2.724851 -0.000000 18.057891
LeftHand -25.204646 -0.000000 -0.056793
LeftHandThumb1 -26.253704 0.000000 33.147579
RightShoulder 10.534434 44.307420 -38.554268
RightArm 44.216096 19.218450 45.014472
RightForeArm -15.408429 -0.000000 27.176896
RightHand -9.369282 -0.000000 -4.049565
RightHandThumb1 -24.326973 -0.000000 -32.862282
LeftUpLeg -100.108122 6.121568 4.729140
LeftLeg 61.796293 -0.000000 -0.000000
LeftFoot -44.641800 19.012644 -29.184149
LeftToeBase -4.431560 -0.000000 0.000000
RightUpLeg -32.703294 -7.864284 15.864290
RightLeg 6.553376 -0.000000 -0.000000
RightFoot 6.829266 3.768063 5.984215
RightToeBase 1.154325 -0.000000 -0.000000
890
root 9.237413 29.739162 -2.907994 194.265486 -67.648813 -112.242232
Spine 22.381691 13.144205 -16.443026
Head -64.359301 13.547973 8.529451
LeftShoulder 13.444323 -8.906662 46.562400
LeftArm 35.493620 -41.740108 -17.023303
LeftForeArm 2.415858 -0.000000 17.772205
LeftHand -25.348100 -0.000000 0.507314
LeftHandThumb1 -26.253704 0.000000 33.147579
RightShoulder 10.697662 45.414577 -38.840211
RightArm 43.775647 20.110415 44.738965
RightForeArm -15.200469 -0.000000 27.434437
RightHand -9.693243 -0.000000 -4.694161
RightHandThumb1 -24.326973 -0.000000 -32.862282
LeftUpLeg -100.925730 6.227836 5.316422
LeftLeg 61.172161 -0.000000 -0.000000
LeftFoot -45.577145 18.993021 -29.593482
LeftToeBase -4.149908 -0.000000 0.000000
RightUpLeg -32.323521 -8.434618 15.293882
RightLeg 6.536061 -0.000000 -0.000000
RightFoot 7.833653 3.682656 6.188720
RightToeBase 3.444950 -0.000000 -0.000000
891
root 8.821464 29.752474 -2.843559 195.385419 -67.334110 -111.203452
Spine 21.809234 12.821780 -17.018842
Head -65.581224 13.684085 8.268942
LeftShoulder 13.426201 -7.607060 46.943191
LeftArm 34.601829 -44.472018 -16.393561
LeftForeArm 1.979602 -0.000000 17.559823
LeftHand -25.825446 -0.000000 1.378426
LeftHandThumb1 -26.253704 0.000000 33.147579
RightShoulder 10.152165 45.987836 -39.567682
RightArm 43.350757 20.993310 44.434679
RightForeArm -14.865937 -0.000000 27.637913
RightHand -9.919987 -0.000000 -5.238358
RightHandThumb1 -24.326973 -0.000000 -32.862282
LeftUpLeg -101.773850 6.394901 5.935914
LeftLeg 60.556725 -0.000000 -0.000000
LeftFoot -46.338962 19.059911 -29.885417
LeftToeBase -4.174752 -0.000000 0.000000
RightUpLeg -31.804108 -9.203155 14.766391
RightLeg 6.595335 -0.000000 -0.000000
RightFoot 8.629433 3.072071 5.957880
RightToeBase 3.562504 -0.000000 -0.000000
892
root 8.393051 29.766999 -2.776653 196.677234 -67.038045 -110.356963
Spine 21.196258 12.384461 -17.702944
Head -66.659719 13.908795 7.933128
LeftShoulder 13.235158 -6.174146 47.201074
LeftArm 34.295975 -47.418806 -16.228618
LeftForeArm 1.103109 -0.000000 17.386571
LeftHand -26.372512 -0.000000 2.659218
LeftHandThumb1 -26.253704 0.000000 33.147579
RightShoulder 9.794113 46.389381 -40.058318
RightArm 42.961522 21.779583 43.821081
RightForeArm -14.106085 -0.000000 27.845033
RightHand -10.222941 -0.000000 -5.763879
RightHandThumb1 -24.326973 -0.000000 -32.862282
LeftUpLeg -102.558680 6.494179 6.663214
LeftLeg 59.912119 -0.000000 -0.000000
LeftFoot -47.075830 19.232562 -30.319915
LeftToeBase -4.171137 -0.000000 0.000000
RightUpLeg -31.127391 -10.199831 14.125826
RightLeg 6.755318 -0.000000 -0.000000
RightFoot 9.273912 1.925205 5.145847
RightToeBase 4.508201 -0.000000 -0.000000
893
root 7.968024 29.785618 -2.714964 197.785259 -66.690894 -109.310436
Spine 20.510254 11.884530 -18.332922
Head -67.581654 14.232349 7.507783
LeftShoulder 12.847229 -4.798310 47.329280
LeftArm 34.513352 -50.463433 -16.634480
LeftForeArm 0.927916 0.000000 17.252983
LeftHand -26.804633 -0.000000 3.475791
LeftHandThumb1 -26.253704 0.000000 33.147579
RightShoulder 9.536567 47.201073 -40.736879
RightArm 42.087392 22.458682 43.459667
RightForeArm -13.449887 -0.000000 28.120143
RightHand -10.369287 0.000000 -6.556656
RightHandThumb1 -24.326973 -0.000000 -32.862282
LeftUpLeg -103.359181 6.705467 7.417362
LeftLeg 59.279958 -0.000000 -0.000000
LeftFoot -47.739852 19.545104 -30.699110
LeftToeBase -4.223718 -0.000000 0.000000
RightUpLeg -30.303835 -11.272892 13.471567
RightLeg 7.045285 -0.000000 -0.000000
RightFoot 9.891066 0.315617 5.420535
RightToeBase 4.863947 -0.000000 -0.000000
894
root 7.533117 29.809213 -2.640385 199.179075 -66.283048 -108.593004
Spine 19.810047 11.418270 -19.116375
Head -68.431290 14.420264 7.152946
LeftShoulder 12.288695 -3.532850 47.401742
LeftArm 35.538672 -53.433468 -17.773108
LeftForeArm 0.637477 0.000000 17.123087
LeftHand -27.409790 0.000000 4.908474
LeftHandThumb1 -26.253704 0.000000 33.147579
RightShoulder 9.338133 48.065196 -41.339372
RightArm 41.159554 23.087159 43.091909
RightForeArm -12.943927 -0.000000 28.261175
RightHand -10.565353 -0.000000 -6.754289
RightHandThumb1 -24.326973 -0.000000 -32.862282
LeftUpLeg -104.068538 6.934088 8.069630
LeftLeg 58.563598 -0.000000 -0.000000
LeftFoot -48.359428 19.850759 -31.126966
LeftToeBase -4.348349 -0.000000 0.000000
RightUpLeg -29.355279 -12.362861 12.482627
RightLeg 7.492911 -0.000000 -0.000000
RightFoot 10.624630 -1.202354 5.254215
RightToeBase 4.689062 -0.000000 -0.000000
895
root 7.097619 29.839124 -2.572636 200.426264 -65.793212 -107.734500
Spine 19.068932 11.080310 -19.854148
Head -69.180305 14.460243 6.920224
LeftShoulder 11.679817 -2.285121 47.393982
LeftArm 37.213205 -56.413479 -19.495567
LeftForeArm 1.074161 -0.000000 17.008983
LeftHand -28.062862 -0.000000 5.605297
LeftHandThumb1 -26.253704 0.000000 33.147579
RightShoulder 9.078555 48.881287 -41.981124
RightArm 40.263388 23.650394 42.714312
RightForeArm -12.588703 -0.000000 28.263334
RightHand -10.703675 -0.000000 -6.931555
RightHandThumb1 -24.326973 -0.000000 -32.862282
LeftUpLeg -104.715774 7.315527 8.719752
LeftLeg 57.790911 -0.000000 -0.000000
LeftFoot -48.897730 20.126005 -31.498010
LeftToeBase -4.523095 -0.000000 0.000000
RightUpLeg -28.243016 -13.319890 11.330755
RightLeg 8.033860 -0.000000 -0.000000
RightFoot 11.783040 -2.153907 4.402830
RightToeBase 4.879311 -0.000000 -0.000000
